<svg viewBox="0 0 569 280" xmlns="http://www.w3.org/2000/svg" xmlns:bx="https://boxy-svg.com">
  <defs>
  </defs>
  <ellipse style="stroke: rgb(0, 0, 0); fill: rgb(255, 145, 145);" cx="66.393" cy="148.519" rx="60" ry="60"></ellipse>
  <rect style="fill: rgb(144, 255, 181);" x="193.931" y="8.478" width="181.326" height="260" rx="10" ry="10"></rect>
  <rect style="stroke: rgb(0, 0, 0); fill: rgb(255, 236, 66);" x="240.615" y="38.234" width="83.897" height="31.8" rx="5" ry="5"></rect>
  <path style="stroke: rgb(0, 0, 0); fill: none;" d="M 108.004 92.362 C 138.676 59.209 182.428 51.991 225.054 52.443"></path>
  <ellipse style="stroke: rgb(0, 0, 0); fill: rgb(145, 193, 255);" cx="502.073" cy="148.478" rx="60" ry="60"></ellipse>
  <path d="M 44.264 149.542 Q 44.264 150.685 43.697 151.489 Q 43.13 152.293 42.11 152.715 Q 41.091 153.137 39.711 153.137 Q 38.982 153.137 38.331 153.066 Q 37.681 152.996 37.136 152.864 Q 36.591 152.732 36.178 152.539 L 36.178 151.107 Q 36.837 151.379 37.786 151.612 Q 38.735 151.845 39.773 151.845 Q 40.739 151.845 41.407 151.586 Q 42.075 151.326 42.422 150.838 Q 42.77 150.351 42.77 149.665 Q 42.77 149.006 42.48 148.562 Q 42.19 148.118 41.517 147.753 Q 40.845 147.389 39.685 146.976 Q 38.867 146.686 38.243 146.338 Q 37.619 145.991 37.197 145.552 Q 36.776 145.112 36.56 144.532 Q 36.345 143.952 36.345 143.205 Q 36.345 142.177 36.868 141.443 Q 37.391 140.709 38.318 140.318 Q 39.245 139.927 40.449 139.927 Q 41.478 139.927 42.352 140.12 Q 43.227 140.314 43.956 140.639 L 43.49 141.922 Q 42.796 141.632 42.018 141.439 Q 41.24 141.245 40.414 141.245 Q 39.588 141.245 39.021 141.487 Q 38.454 141.729 38.155 142.168 Q 37.857 142.607 37.857 143.214 Q 37.857 143.891 38.142 144.339 Q 38.428 144.787 39.056 145.134 Q 39.685 145.482 40.722 145.859 Q 41.856 146.273 42.647 146.734 Q 43.438 147.195 43.851 147.859 Q 44.264 148.523 44.264 149.542 Z M 50.368 143.152 Q 51.599 143.152 52.478 143.697 Q 53.357 144.242 53.822 145.222 Q 54.288 146.202 54.288 147.512 L 54.288 148.417 L 47.635 148.417 Q 47.661 150.113 48.479 151.001 Q 49.296 151.889 50.781 151.889 Q 51.695 151.889 52.399 151.722 Q 53.102 151.555 53.858 151.23 L 53.858 152.513 Q 53.128 152.838 52.412 152.987 Q 51.695 153.137 50.72 153.137 Q 49.331 153.137 48.298 152.57 Q 47.266 152.003 46.694 150.904 Q 46.123 149.806 46.123 148.215 Q 46.123 146.659 46.646 145.521 Q 47.169 144.383 48.123 143.768 Q 49.076 143.152 50.368 143.152 Z M 50.351 144.348 Q 49.182 144.348 48.487 145.112 Q 47.793 145.877 47.661 147.248 L 52.759 147.248 Q 52.75 146.387 52.491 145.732 Q 52.232 145.077 51.704 144.712 Q 51.177 144.348 50.351 144.348 Z M 61.322 143.152 Q 63.036 143.152 63.914 143.992 Q 64.793 144.831 64.793 146.686 L 64.793 152.961 L 63.352 152.961 L 63.352 146.782 Q 63.352 145.578 62.803 144.981 Q 62.253 144.383 61.12 144.383 Q 59.52 144.383 58.87 145.288 Q 58.219 146.193 58.219 147.916 L 58.219 152.961 L 56.76 152.961 L 56.76 143.328 L 57.938 143.328 L 58.158 144.717 L 58.237 144.717 Q 58.544 144.207 59.019 143.86 Q 59.494 143.513 60.082 143.333 Q 60.671 143.152 61.322 143.152 Z M 71.227 153.137 Q 69.399 153.137 68.331 151.889 Q 67.263 150.641 67.263 148.18 Q 67.263 145.692 68.353 144.422 Q 69.443 143.152 71.254 143.152 Q 72.018 143.152 72.59 143.355 Q 73.161 143.557 73.574 143.895 Q 73.987 144.233 74.268 144.664 L 74.374 144.664 Q 74.339 144.392 74.303 143.917 Q 74.268 143.442 74.268 143.144 L 74.268 139.285 L 75.727 139.285 L 75.727 152.961 L 74.55 152.961 L 74.33 151.59 L 74.268 151.59 Q 73.996 152.021 73.578 152.372 Q 73.161 152.724 72.585 152.93 Q 72.01 153.137 71.227 153.137 Z M 71.456 151.924 Q 73.003 151.924 73.644 151.045 Q 74.286 150.166 74.286 148.435 L 74.286 148.171 Q 74.286 146.334 73.675 145.35 Q 73.064 144.365 71.456 144.365 Q 70.111 144.365 69.443 145.398 Q 68.775 146.431 68.775 148.215 Q 68.775 149.99 69.439 150.957 Q 70.102 151.924 71.456 151.924 Z M 82.526 143.152 Q 83.756 143.152 84.635 143.697 Q 85.514 144.242 85.98 145.222 Q 86.446 146.202 86.446 147.512 L 86.446 148.417 L 79.792 148.417 Q 79.819 150.113 80.636 151.001 Q 81.453 151.889 82.939 151.889 Q 83.853 151.889 84.556 151.722 Q 85.259 151.555 86.015 151.23 L 86.015 152.513 Q 85.285 152.838 84.569 152.987 Q 83.853 153.137 82.877 153.137 Q 81.489 153.137 80.456 152.57 Q 79.423 152.003 78.852 150.904 Q 78.281 149.806 78.281 148.215 Q 78.281 146.659 78.803 145.521 Q 79.326 144.383 80.28 143.768 Q 81.234 143.152 82.526 143.152 Z M 82.508 144.348 Q 81.339 144.348 80.645 145.112 Q 79.95 145.877 79.819 147.248 L 84.916 147.248 Q 84.907 146.387 84.648 145.732 Q 84.389 145.077 83.862 144.712 Q 83.334 144.348 82.508 144.348 Z M 93.294 143.152 Q 93.584 143.152 93.901 143.183 Q 94.217 143.214 94.463 143.267 L 94.279 144.62 Q 94.042 144.559 93.751 144.523 Q 93.461 144.488 93.207 144.488 Q 92.626 144.488 92.112 144.721 Q 91.598 144.954 91.211 145.389 Q 90.825 145.824 90.605 146.435 Q 90.385 147.046 90.385 147.793 L 90.385 152.961 L 88.918 152.961 L 88.918 143.328 L 90.13 143.328 L 90.289 145.104 L 90.35 145.104 Q 90.649 144.567 91.071 144.124 Q 91.493 143.68 92.051 143.416 Q 92.609 143.152 93.294 143.152 Z" style="fill: rgb(51, 51, 51); white-space: pre;"></path>
  <path d="M 470.473 141.877 Q 472.055 141.877 473.087 142.269 Q 474.12 142.66 474.63 143.459 Q 475.139 144.259 475.139 145.498 Q 475.139 146.518 474.77 147.199 Q 474.401 147.88 473.804 148.302 Q 473.206 148.724 472.529 148.953 L 476.054 154.727 L 474.313 154.727 L 471.167 149.366 L 468.495 149.366 L 468.495 154.727 L 467.001 154.727 L 467.001 141.877 Z M 470.385 143.169 L 468.495 143.169 L 468.495 148.1 L 470.534 148.1 Q 472.107 148.1 472.85 147.458 Q 473.593 146.817 473.593 145.569 Q 473.593 144.259 472.806 143.714 Q 472.019 143.169 470.385 143.169 Z M 481.597 144.918 Q 482.827 144.918 483.706 145.463 Q 484.585 146.008 485.051 146.988 Q 485.516 147.968 485.516 149.278 L 485.516 150.183 L 478.863 150.183 Q 478.89 151.879 479.707 152.767 Q 480.524 153.655 482.01 153.655 Q 482.924 153.655 483.627 153.488 Q 484.33 153.321 485.086 152.996 L 485.086 154.279 Q 484.356 154.604 483.64 154.753 Q 482.924 154.903 481.948 154.903 Q 480.559 154.903 479.527 154.336 Q 478.494 153.769 477.923 152.67 Q 477.351 151.572 477.351 149.981 Q 477.351 148.425 477.874 147.287 Q 478.397 146.149 479.351 145.534 Q 480.305 144.918 481.597 144.918 Z M 481.579 146.114 Q 480.41 146.114 479.716 146.878 Q 479.021 147.643 478.89 149.014 L 483.987 149.014 Q 483.978 148.153 483.719 147.498 Q 483.46 146.843 482.932 146.478 Q 482.405 146.114 481.579 146.114 Z M 491.847 154.903 Q 490.546 154.903 489.553 154.367 Q 488.56 153.831 488.006 152.732 Q 487.452 151.633 487.452 149.963 Q 487.452 148.214 488.037 147.102 Q 488.621 145.991 489.65 145.455 Q 490.678 144.918 491.987 144.918 Q 492.708 144.918 493.38 145.063 Q 494.053 145.208 494.484 145.428 L 494.044 146.65 Q 493.605 146.474 493.029 146.333 Q 492.453 146.193 491.952 146.193 Q 490.95 146.193 490.287 146.623 Q 489.623 147.054 489.294 147.889 Q 488.964 148.724 488.964 149.946 Q 488.964 151.115 489.285 151.941 Q 489.606 152.767 490.243 153.202 Q 490.88 153.637 491.838 153.637 Q 492.603 153.637 493.218 153.475 Q 493.833 153.312 494.334 153.092 L 494.334 154.393 Q 493.851 154.639 493.257 154.771 Q 492.664 154.903 491.847 154.903 Z M 500.323 144.918 Q 501.554 144.918 502.433 145.463 Q 503.312 146.008 503.777 146.988 Q 504.243 147.968 504.243 149.278 L 504.243 150.183 L 497.59 150.183 Q 497.616 151.879 498.434 152.767 Q 499.251 153.655 500.736 153.655 Q 501.65 153.655 502.354 153.488 Q 503.057 153.321 503.813 152.996 L 503.813 154.279 Q 503.083 154.604 502.367 154.753 Q 501.65 154.903 500.675 154.903 Q 499.286 154.903 498.254 154.336 Q 497.221 153.769 496.65 152.67 Q 496.078 151.572 496.078 149.981 Q 496.078 148.425 496.601 147.287 Q 497.124 146.149 498.078 145.534 Q 499.031 144.918 500.323 144.918 Z M 500.306 146.114 Q 499.137 146.114 498.442 146.878 Q 497.748 147.643 497.616 149.014 L 502.714 149.014 Q 502.705 148.153 502.446 147.498 Q 502.187 146.843 501.659 146.478 Q 501.132 146.114 500.306 146.114 Z M 508.174 145.094 L 508.174 154.727 L 506.715 154.727 L 506.715 145.094 Z M 507.462 141.491 Q 507.823 141.491 508.082 141.724 Q 508.341 141.956 508.341 142.449 Q 508.341 142.932 508.082 143.169 Q 507.823 143.407 507.462 143.407 Q 507.084 143.407 506.834 143.169 Q 506.583 142.932 506.583 142.449 Q 506.583 141.956 506.834 141.724 Q 507.084 141.491 507.462 141.491 Z M 513.381 154.727 L 509.725 145.094 L 511.289 145.094 L 513.407 150.921 Q 513.627 151.519 513.856 152.24 Q 514.084 152.96 514.172 153.4 L 514.234 153.4 Q 514.339 152.96 514.585 152.235 Q 514.831 151.51 515.033 150.921 L 517.152 145.094 L 518.716 145.094 L 515.051 154.727 Z M 523.966 144.918 Q 525.197 144.918 526.076 145.463 Q 526.955 146.008 527.421 146.988 Q 527.886 147.968 527.886 149.278 L 527.886 150.183 L 521.233 150.183 Q 521.259 151.879 522.077 152.767 Q 522.894 153.655 524.38 153.655 Q 525.294 153.655 525.997 153.488 Q 526.7 153.321 527.456 152.996 L 527.456 154.279 Q 526.726 154.604 526.01 154.753 Q 525.294 154.903 524.318 154.903 Q 522.929 154.903 521.897 154.336 Q 520.864 153.769 520.293 152.67 Q 519.721 151.572 519.721 149.981 Q 519.721 148.425 520.244 147.287 Q 520.767 146.149 521.721 145.534 Q 522.674 144.918 523.966 144.918 Z M 523.949 146.114 Q 522.78 146.114 522.086 146.878 Q 521.391 147.643 521.259 149.014 L 526.357 149.014 Q 526.348 148.153 526.089 147.498 Q 525.83 146.843 525.302 146.478 Q 524.775 146.114 523.949 146.114 Z M 534.735 144.918 Q 535.025 144.918 535.342 144.949 Q 535.658 144.98 535.904 145.033 L 535.72 146.386 Q 535.482 146.325 535.192 146.29 Q 534.902 146.254 534.647 146.254 Q 534.067 146.254 533.553 146.487 Q 533.039 146.72 532.652 147.155 Q 532.266 147.59 532.046 148.201 Q 531.826 148.812 531.826 149.559 L 531.826 154.727 L 530.358 154.727 L 530.358 145.094 L 531.571 145.094 L 531.729 146.87 L 531.791 146.87 Q 532.09 146.333 532.512 145.89 Q 532.934 145.446 533.492 145.182 Q 534.05 144.918 534.735 144.918 Z" style="fill: rgb(51, 51, 51); white-space: pre;"></path>
  <path d="M 253.437 60.885 L 249.122 49.512 L 249.051 49.512 Q 249.087 49.872 249.113 50.391 Q 249.139 50.909 249.157 51.52 Q 249.174 52.131 249.174 52.764 L 249.174 60.885 L 247.786 60.885 L 247.786 48.035 L 250.001 48.035 L 254.07 58.723 L 254.132 58.723 L 258.262 48.035 L 260.46 48.035 L 260.46 60.885 L 258.983 60.885 L 258.983 52.658 Q 258.983 52.087 259.001 51.511 Q 259.018 50.936 259.045 50.422 Q 259.071 49.907 259.097 49.53 L 259.027 49.53 L 254.659 60.885 Z M 267.454 51.076 Q 268.685 51.076 269.564 51.621 Q 270.443 52.166 270.908 53.146 Q 271.374 54.126 271.374 55.436 L 271.374 56.341 L 264.721 56.341 Q 264.747 58.037 265.565 58.925 Q 266.382 59.813 267.867 59.813 Q 268.781 59.813 269.485 59.646 Q 270.188 59.479 270.944 59.154 L 270.944 60.437 Q 270.214 60.762 269.498 60.911 Q 268.781 61.061 267.806 61.061 Q 266.417 61.061 265.384 60.494 Q 264.352 59.927 263.78 58.828 Q 263.209 57.73 263.209 56.139 Q 263.209 54.583 263.732 53.445 Q 264.255 52.307 265.209 51.692 Q 266.162 51.076 267.454 51.076 Z M 267.437 52.272 Q 266.268 52.272 265.573 53.036 Q 264.879 53.801 264.747 55.172 L 269.845 55.172 Q 269.836 54.311 269.577 53.656 Q 269.318 53.001 268.79 52.636 Q 268.263 52.272 267.437 52.272 Z M 280.089 58.248 Q 280.089 59.171 279.627 59.8 Q 279.166 60.428 278.309 60.744 Q 277.452 61.061 276.266 61.061 Q 275.255 61.061 274.517 60.903 Q 273.778 60.744 273.225 60.454 L 273.225 59.11 Q 273.813 59.4 274.631 59.637 Q 275.448 59.874 276.301 59.874 Q 277.549 59.874 278.111 59.47 Q 278.674 59.066 278.674 58.371 Q 278.674 57.976 278.45 57.673 Q 278.225 57.369 277.698 57.084 Q 277.171 56.798 276.239 56.455 Q 275.316 56.104 274.644 55.757 Q 273.972 55.409 273.607 54.908 Q 273.242 54.407 273.242 53.608 Q 273.242 52.386 274.231 51.731 Q 275.22 51.076 276.828 51.076 Q 277.698 51.076 278.458 51.248 Q 279.219 51.419 279.878 51.709 L 279.386 52.878 Q 278.788 52.623 278.111 52.447 Q 277.434 52.272 276.731 52.272 Q 275.721 52.272 275.18 52.606 Q 274.64 52.94 274.64 53.52 Q 274.64 53.968 274.89 54.258 Q 275.141 54.548 275.694 54.803 Q 276.248 55.058 277.153 55.401 Q 278.059 55.735 278.718 56.091 Q 279.377 56.447 279.733 56.952 Q 280.089 57.457 280.089 58.248 Z M 288.67 58.248 Q 288.67 59.171 288.209 59.8 Q 287.747 60.428 286.89 60.744 Q 286.033 61.061 284.847 61.061 Q 283.836 61.061 283.098 60.903 Q 282.359 60.744 281.806 60.454 L 281.806 59.11 Q 282.395 59.4 283.212 59.637 Q 284.029 59.874 284.882 59.874 Q 286.13 59.874 286.693 59.47 Q 287.255 59.066 287.255 58.371 Q 287.255 57.976 287.031 57.673 Q 286.807 57.369 286.279 57.084 Q 285.752 56.798 284.82 56.455 Q 283.898 56.104 283.225 55.757 Q 282.553 55.409 282.188 54.908 Q 281.823 54.407 281.823 53.608 Q 281.823 52.386 282.812 51.731 Q 283.801 51.076 285.409 51.076 Q 286.279 51.076 287.04 51.248 Q 287.8 51.419 288.459 51.709 L 287.967 52.878 Q 287.369 52.623 286.693 52.447 Q 286.016 52.272 285.313 52.272 Q 284.302 52.272 283.761 52.606 Q 283.221 52.94 283.221 53.52 Q 283.221 53.968 283.471 54.258 Q 283.722 54.548 284.276 54.803 Q 284.829 55.058 285.734 55.401 Q 286.64 55.735 287.299 56.091 Q 287.958 56.447 288.314 56.952 Q 288.67 57.457 288.67 58.248 Z M 294.612 51.094 Q 296.335 51.094 297.17 51.867 Q 298.005 52.641 298.005 54.337 L 298.005 60.885 L 296.941 60.885 L 296.66 59.461 L 296.59 59.461 Q 296.185 59.989 295.746 60.344 Q 295.307 60.7 294.731 60.881 Q 294.155 61.061 293.32 61.061 Q 292.441 61.061 291.76 60.753 Q 291.079 60.446 290.688 59.822 Q 290.297 59.197 290.297 58.239 Q 290.297 56.798 291.439 56.025 Q 292.582 55.251 294.92 55.181 L 296.581 55.111 L 296.581 54.522 Q 296.581 53.274 296.045 52.773 Q 295.509 52.272 294.533 52.272 Q 293.777 52.272 293.092 52.491 Q 292.406 52.711 291.791 53.01 L 291.343 51.903 Q 291.993 51.569 292.837 51.331 Q 293.681 51.094 294.612 51.094 Z M 296.563 56.139 L 295.096 56.2 Q 293.294 56.271 292.556 56.789 Q 291.817 57.308 291.817 58.257 Q 291.817 59.083 292.318 59.479 Q 292.819 59.874 293.645 59.874 Q 294.929 59.874 295.746 59.162 Q 296.563 58.45 296.563 57.027 Z M 303.698 65.209 Q 301.8 65.209 300.772 64.502 Q 299.743 63.794 299.743 62.52 Q 299.743 61.614 300.319 60.973 Q 300.895 60.331 301.914 60.12 Q 301.536 59.945 301.268 59.593 Q 301 59.241 301 58.784 Q 301 58.257 301.295 57.857 Q 301.589 57.457 302.195 57.088 Q 301.44 56.781 300.969 56.047 Q 300.499 55.313 300.499 54.337 Q 300.499 53.3 300.93 52.566 Q 301.361 51.832 302.178 51.446 Q 302.995 51.059 304.155 51.059 Q 304.41 51.059 304.67 51.081 Q 304.929 51.103 305.166 51.142 Q 305.404 51.182 305.579 51.235 L 308.884 51.235 L 308.884 52.175 L 307.109 52.395 Q 307.372 52.738 307.548 53.221 Q 307.724 53.704 307.724 54.293 Q 307.724 55.735 306.748 56.583 Q 305.773 57.431 304.068 57.431 Q 303.663 57.431 303.241 57.361 Q 302.811 57.598 302.587 57.888 Q 302.362 58.178 302.362 58.556 Q 302.362 58.837 302.534 59.004 Q 302.705 59.171 303.03 59.246 Q 303.356 59.321 303.813 59.321 L 305.509 59.321 Q 307.082 59.321 307.922 59.98 Q 308.761 60.639 308.761 61.905 Q 308.761 63.504 307.46 64.357 Q 306.159 65.209 303.698 65.209 Z M 303.742 64.067 Q 304.938 64.067 305.724 63.825 Q 306.511 63.583 306.902 63.131 Q 307.293 62.678 307.293 62.054 Q 307.293 61.474 307.029 61.179 Q 306.766 60.885 306.256 60.784 Q 305.746 60.683 305.008 60.683 L 303.338 60.683 Q 302.688 60.683 302.204 60.885 Q 301.721 61.087 301.462 61.483 Q 301.202 61.878 301.202 62.467 Q 301.202 63.249 301.862 63.658 Q 302.521 64.067 303.742 64.067 Z M 304.12 56.367 Q 305.166 56.367 305.694 55.84 Q 306.221 55.313 306.221 54.302 Q 306.221 53.221 305.685 52.68 Q 305.149 52.14 304.103 52.14 Q 303.101 52.14 302.56 52.698 Q 302.02 53.256 302.02 54.328 Q 302.02 55.313 302.565 55.84 Q 303.11 56.367 304.12 56.367 Z M 314.495 51.076 Q 315.725 51.076 316.604 51.621 Q 317.483 52.166 317.949 53.146 Q 318.415 54.126 318.415 55.436 L 318.415 56.341 L 311.761 56.341 Q 311.788 58.037 312.605 58.925 Q 313.423 59.813 314.908 59.813 Q 315.822 59.813 316.525 59.646 Q 317.228 59.479 317.984 59.154 L 317.984 60.437 Q 317.255 60.762 316.538 60.911 Q 315.822 61.061 314.846 61.061 Q 313.458 61.061 312.425 60.494 Q 311.392 59.927 310.821 58.828 Q 310.25 57.73 310.25 56.139 Q 310.25 54.583 310.773 53.445 Q 311.296 52.307 312.249 51.692 Q 313.203 51.076 314.495 51.076 Z M 314.477 52.272 Q 313.308 52.272 312.614 53.036 Q 311.92 53.801 311.788 55.172 L 316.885 55.172 Q 316.877 54.311 316.617 53.656 Q 316.358 53.001 315.831 52.636 Q 315.303 52.272 314.477 52.272 Z" style="fill: rgb(51, 51, 51); white-space: pre;"></path>
  <path style="stroke: rgb(0, 0, 0); fill: none;" d="M 339.004 52.423 C 369.676 85.576 413.428 92.794 456.054 92.342" transform="matrix(-1, 0, 0, -1, 795.057983, 144.784534)"></path>
  <path d="M 275.823 128.203 L 279.171 137.366 L 272.475 137.366 L 275.823 128.203 Z" style="stroke: rgb(0, 0, 0);" transform="matrix(0, 1, -1, 0, 360.980438, -223.560425)" bx:shape="triangle 272.475 128.203 6.696 9.163 0.5 0 1@0fd70dec"></path>
  <path d="M 275.823 128.203 L 279.171 137.366 L 272.475 137.366 L 275.823 128.203 Z" style="stroke: rgb(0, 0, 0);" transform="matrix(-0.694658, 0.71934, -0.71934, -0.694658, 742.914001, -14.323927)" bx:shape="triangle 272.475 128.203 6.696 9.163 0.5 0 1@0fd70dec"></path>
  <rect style="stroke: rgb(0, 0, 0); fill: rgb(255, 236, 66);" x="-326.805" y="-259.036" width="83.897" height="31.8" rx="5" ry="5" transform="matrix(-1, 0, 0, -1, 0, 0)"></rect>
  <path style="stroke: rgb(0, 0, 0); fill: none;" d="M 342.366 244.846 C 373.038 211.693 416.79 204.475 459.416 204.927" transform="matrix(-1, 0, 0, -1, 801.781982, 449.753464)"></path>
  <path d="M 248.322 249.735 L 246.828 249.735 L 246.828 236.885 L 253.982 236.885 L 253.982 238.204 L 248.322 238.204 L 248.322 242.915 L 253.639 242.915 L 253.639 244.224 L 248.322 244.224 Z M 259.602 239.926 Q 260.833 239.926 261.712 240.471 Q 262.591 241.016 263.056 241.996 Q 263.522 242.976 263.522 244.286 L 263.522 245.191 L 256.869 245.191 Q 256.895 246.887 257.713 247.775 Q 258.53 248.663 260.015 248.663 Q 260.929 248.663 261.633 248.496 Q 262.336 248.329 263.092 248.004 L 263.092 249.287 Q 262.362 249.612 261.646 249.761 Q 260.929 249.911 259.954 249.911 Q 258.565 249.911 257.532 249.344 Q 256.5 248.777 255.928 247.678 Q 255.357 246.58 255.357 244.989 Q 255.357 243.433 255.88 242.295 Q 256.403 241.157 257.357 240.542 Q 258.31 239.926 259.602 239.926 Z M 259.585 241.122 Q 258.416 241.122 257.721 241.886 Q 257.027 242.651 256.895 244.022 L 261.993 244.022 Q 261.984 243.161 261.725 242.506 Q 261.466 241.851 260.938 241.486 Q 260.411 241.122 259.585 241.122 Z M 269.703 239.926 Q 270.934 239.926 271.813 240.471 Q 272.691 241.016 273.157 241.996 Q 273.623 242.976 273.623 244.286 L 273.623 245.191 L 266.97 245.191 Q 266.996 246.887 267.813 247.775 Q 268.631 248.663 270.116 248.663 Q 271.03 248.663 271.733 248.496 Q 272.437 248.329 273.192 248.004 L 273.192 249.287 Q 272.463 249.612 271.747 249.761 Q 271.03 249.911 270.055 249.911 Q 268.666 249.911 267.633 249.344 Q 266.601 248.777 266.029 247.678 Q 265.458 246.58 265.458 244.989 Q 265.458 243.433 265.981 242.295 Q 266.504 241.157 267.458 240.542 Q 268.411 239.926 269.703 239.926 Z M 269.686 241.122 Q 268.517 241.122 267.822 241.886 Q 267.128 242.651 266.996 244.022 L 272.094 244.022 Q 272.085 243.161 271.826 242.506 Q 271.566 241.851 271.039 241.486 Q 270.512 241.122 269.686 241.122 Z M 279.534 249.911 Q 277.706 249.911 276.638 248.663 Q 275.57 247.415 275.57 244.954 Q 275.57 242.466 276.66 241.196 Q 277.75 239.926 279.56 239.926 Q 280.325 239.926 280.896 240.129 Q 281.467 240.331 281.881 240.669 Q 282.294 241.007 282.575 241.438 L 282.68 241.438 Q 282.645 241.166 282.61 240.691 Q 282.575 240.216 282.575 239.918 L 282.575 236.059 L 284.034 236.059 L 284.034 249.735 L 282.856 249.735 L 282.636 248.364 L 282.575 248.364 Q 282.302 248.795 281.885 249.146 Q 281.467 249.498 280.892 249.704 Q 280.316 249.911 279.534 249.911 Z M 279.762 248.698 Q 281.309 248.698 281.951 247.819 Q 282.592 246.94 282.592 245.209 L 282.592 244.945 Q 282.592 243.108 281.982 242.124 Q 281.371 241.139 279.762 241.139 Q 278.418 241.139 277.75 242.172 Q 277.082 243.205 277.082 244.989 Q 277.082 246.764 277.745 247.731 Q 278.409 248.698 279.762 248.698 Z M 288.582 236.059 L 288.582 239.478 Q 288.582 240.067 288.551 240.621 Q 288.521 241.174 288.503 241.482 L 288.582 241.482 Q 288.978 240.832 289.725 240.383 Q 290.472 239.935 291.632 239.935 Q 293.443 239.935 294.519 241.188 Q 295.596 242.44 295.596 244.91 Q 295.596 246.536 295.104 247.652 Q 294.612 248.768 293.715 249.339 Q 292.819 249.911 291.597 249.911 Q 290.454 249.911 289.72 249.485 Q 288.987 249.058 288.591 248.443 L 288.477 248.443 L 288.178 249.735 L 287.123 249.735 L 287.123 236.059 Z M 291.395 241.157 Q 290.349 241.157 289.734 241.566 Q 289.118 241.974 288.85 242.796 Q 288.582 243.618 288.582 244.875 L 288.582 244.954 Q 288.582 246.773 289.189 247.735 Q 289.795 248.698 291.395 248.698 Q 292.739 248.698 293.412 247.714 Q 294.084 246.729 294.084 244.901 Q 294.084 243.038 293.421 242.097 Q 292.757 241.157 291.395 241.157 Z M 301.733 239.944 Q 303.455 239.944 304.29 240.717 Q 305.125 241.491 305.125 243.187 L 305.125 249.735 L 304.062 249.735 L 303.781 248.311 L 303.71 248.311 Q 303.306 248.839 302.866 249.194 Q 302.427 249.55 301.851 249.731 Q 301.276 249.911 300.441 249.911 Q 299.562 249.911 298.881 249.603 Q 298.199 249.296 297.808 248.672 Q 297.417 248.048 297.417 247.089 Q 297.417 245.648 298.56 244.875 Q 299.702 244.101 302.04 244.031 L 303.701 243.961 L 303.701 243.372 Q 303.701 242.124 303.165 241.623 Q 302.629 241.122 301.654 241.122 Q 300.898 241.122 300.212 241.341 Q 299.527 241.561 298.911 241.86 L 298.463 240.753 Q 299.114 240.419 299.957 240.181 Q 300.801 239.944 301.733 239.944 Z M 303.684 244.989 L 302.216 245.05 Q 300.414 245.121 299.676 245.639 Q 298.938 246.158 298.938 247.107 Q 298.938 247.933 299.439 248.329 Q 299.94 248.724 300.766 248.724 Q 302.049 248.724 302.866 248.012 Q 303.684 247.3 303.684 245.877 Z M 311.988 249.911 Q 310.687 249.911 309.694 249.375 Q 308.701 248.839 308.147 247.74 Q 307.593 246.641 307.593 244.971 Q 307.593 243.222 308.178 242.11 Q 308.762 240.999 309.791 240.463 Q 310.819 239.926 312.128 239.926 Q 312.849 239.926 313.522 240.071 Q 314.194 240.216 314.625 240.436 L 314.185 241.658 Q 313.746 241.482 313.17 241.341 Q 312.594 241.201 312.093 241.201 Q 311.091 241.201 310.428 241.631 Q 309.764 242.062 309.435 242.897 Q 309.105 243.732 309.105 244.954 Q 309.105 246.123 309.426 246.949 Q 309.747 247.775 310.384 248.21 Q 311.021 248.645 311.979 248.645 Q 312.744 248.645 313.359 248.483 Q 313.974 248.32 314.475 248.1 L 314.475 249.401 Q 313.992 249.647 313.398 249.779 Q 312.805 249.911 311.988 249.911 Z M 318.206 236.059 L 318.206 243.161 Q 318.206 243.512 318.179 244.018 Q 318.153 244.523 318.135 244.91 L 318.197 244.91 Q 318.381 244.681 318.737 244.233 Q 319.093 243.785 319.339 243.512 L 322.539 240.102 L 324.252 240.102 L 320.376 244.215 L 324.534 249.735 L 322.776 249.735 L 319.375 245.173 L 318.206 246.246 L 318.206 249.735 L 316.755 249.735 L 316.755 236.059 Z" style="fill: rgb(51, 51, 51); white-space: pre;"></path>
  <path style="stroke: rgb(0, 0, 0); fill: none;" d="M 111.365 204.908 C 142.037 238.061 185.789 245.279 228.415 244.827"></path>
  <path d="M -348.91 -97.426 L -345.562 -88.263 L -352.258 -88.263 L -348.91 -97.426 Z" style="stroke: rgb(0, 0, 0);" transform="matrix(0, -1, 1, 0, 432.067413, -103.902634)" bx:shape="triangle -352.258 -97.426 6.696 9.163 0.5 0 1@20ef5852"></path>
  <path d="M 275.823 128.203 L 279.171 137.366 L 272.475 137.366 L 275.823 128.203 Z" style="stroke: rgb(0, 0, 0);" transform="matrix(0.694658, -0.71934, 0.71934, 0.694658, -175.494751, 311.593964)" bx:shape="triangle 272.475 128.203 6.696 9.163 0.5 0 1@0fd70dec"></path>
  <path d="M 254.279 14.579 Q 253.215 14.579 252.367 14.944 Q 251.519 15.309 250.926 15.999 Q 250.333 16.689 250.016 17.664 Q 249.7 18.64 249.7 19.861 Q 249.7 21.479 250.205 22.67 Q 250.711 23.86 251.717 24.511 Q 252.723 25.161 254.235 25.161 Q 255.096 25.161 255.857 25.016 Q 256.617 24.871 257.338 24.651 L 257.338 25.952 Q 256.634 26.216 255.861 26.343 Q 255.088 26.471 254.024 26.471 Q 252.064 26.471 250.75 25.658 Q 249.436 24.845 248.781 23.359 Q 248.127 21.874 248.127 19.853 Q 248.127 18.394 248.535 17.185 Q 248.944 15.977 249.731 15.098 Q 250.517 14.219 251.664 13.74 Q 252.811 13.261 254.297 13.261 Q 255.272 13.261 256.177 13.454 Q 257.083 13.648 257.812 14.008 L 257.215 15.274 Q 256.599 14.992 255.865 14.786 Q 255.132 14.579 254.279 14.579 Z M 261.355 12.619 L 261.355 16.706 Q 261.355 17.058 261.337 17.414 Q 261.32 17.77 261.276 18.068 L 261.373 18.068 Q 261.671 17.559 262.133 17.212 Q 262.594 16.864 263.183 16.684 Q 263.772 16.504 264.431 16.504 Q 265.591 16.504 266.369 16.873 Q 267.147 17.242 267.538 18.016 Q 267.929 18.789 267.929 20.02 L 267.929 26.295 L 266.488 26.295 L 266.488 20.116 Q 266.488 18.912 265.939 18.315 Q 265.389 17.717 264.255 17.717 Q 263.183 17.717 262.546 18.126 Q 261.909 18.534 261.632 19.325 Q 261.355 20.116 261.355 21.259 L 261.355 26.295 L 259.896 26.295 L 259.896 12.619 Z M 274.539 16.504 Q 276.262 16.504 277.097 17.277 Q 277.932 18.051 277.932 19.747 L 277.932 26.295 L 276.868 26.295 L 276.587 24.871 L 276.517 24.871 Q 276.112 25.399 275.673 25.754 Q 275.233 26.11 274.658 26.291 Q 274.082 26.471 273.247 26.471 Q 272.368 26.471 271.687 26.163 Q 271.006 25.856 270.615 25.232 Q 270.224 24.608 270.224 23.649 Q 270.224 22.208 271.366 21.435 Q 272.509 20.661 274.847 20.591 L 276.508 20.521 L 276.508 19.932 Q 276.508 18.684 275.972 18.183 Q 275.435 17.682 274.46 17.682 Q 273.704 17.682 273.018 17.901 Q 272.333 18.121 271.718 18.42 L 271.269 17.313 Q 271.92 16.979 272.764 16.741 Q 273.607 16.504 274.539 16.504 Z M 276.49 21.549 L 275.022 21.61 Q 273.221 21.681 272.482 22.199 Q 271.744 22.718 271.744 23.667 Q 271.744 24.493 272.245 24.889 Q 272.746 25.284 273.572 25.284 Q 274.855 25.284 275.673 24.572 Q 276.49 23.86 276.49 22.437 Z M 285.497 16.486 Q 287.211 16.486 288.09 17.326 Q 288.969 18.165 288.969 20.02 L 288.969 26.295 L 287.528 26.295 L 287.528 20.116 Q 287.528 18.912 286.978 18.315 Q 286.429 17.717 285.295 17.717 Q 283.695 17.717 283.045 18.622 Q 282.395 19.527 282.395 21.25 L 282.395 26.295 L 280.936 26.295 L 280.936 16.662 L 282.113 16.662 L 282.333 18.051 L 282.412 18.051 Q 282.72 17.541 283.195 17.194 Q 283.669 16.847 284.258 16.667 Q 284.847 16.486 285.497 16.486 Z M 296.537 16.486 Q 298.251 16.486 299.129 17.326 Q 300.008 18.165 300.008 20.02 L 300.008 26.295 L 298.567 26.295 L 298.567 20.116 Q 298.567 18.912 298.018 18.315 Q 297.468 17.717 296.335 17.717 Q 294.735 17.717 294.085 18.622 Q 293.434 19.527 293.434 21.25 L 293.434 26.295 L 291.975 26.295 L 291.975 16.662 L 293.153 16.662 L 293.373 18.051 L 293.452 18.051 Q 293.759 17.541 294.234 17.194 Q 294.709 16.847 295.297 16.667 Q 295.886 16.486 296.537 16.486 Z M 306.724 16.486 Q 307.954 16.486 308.833 17.031 Q 309.712 17.576 310.178 18.556 Q 310.643 19.536 310.643 20.846 L 310.643 21.751 L 303.99 21.751 Q 304.017 23.447 304.834 24.335 Q 305.651 25.223 307.137 25.223 Q 308.051 25.223 308.754 25.056 Q 309.457 24.889 310.213 24.564 L 310.213 25.847 Q 309.483 26.172 308.767 26.321 Q 308.051 26.471 307.075 26.471 Q 305.686 26.471 304.654 25.904 Q 303.621 25.337 303.05 24.238 Q 302.478 23.14 302.478 21.549 Q 302.478 19.993 303.001 18.855 Q 303.524 17.717 304.478 17.102 Q 305.432 16.486 306.724 16.486 Z M 306.706 17.682 Q 305.537 17.682 304.843 18.446 Q 304.148 19.211 304.017 20.582 L 309.114 20.582 Q 309.105 19.721 308.846 19.066 Q 308.587 18.411 308.06 18.046 Q 307.532 17.682 306.706 17.682 Z M 314.594 26.295 L 313.127 26.295 L 313.127 12.619 L 314.594 12.619 Z" style="fill: rgb(51, 51, 51); white-space: pre;"></path>
  <path d="M 183.685 128.539 Q 184.642 128.539 185.326 128.963 Q 186.009 129.387 186.372 130.149 Q 186.734 130.911 186.734 131.93 L 186.734 132.634 L 181.559 132.634 Q 181.58 133.953 182.215 134.644 Q 182.851 135.334 184.006 135.334 Q 184.717 135.334 185.264 135.204 Q 185.811 135.074 186.399 134.821 L 186.399 135.819 Q 185.832 136.072 185.274 136.189 Q 184.717 136.305 183.958 136.305 Q 182.878 136.305 182.075 135.864 Q 181.272 135.423 180.828 134.568 Q 180.383 133.714 180.383 132.477 Q 180.383 131.267 180.79 130.381 Q 181.197 129.496 181.938 129.018 Q 182.68 128.539 183.685 128.539 Z M 183.671 129.469 Q 182.762 129.469 182.222 130.064 Q 181.682 130.658 181.58 131.725 L 185.544 131.725 Q 185.538 131.055 185.336 130.545 Q 185.134 130.036 184.724 129.752 Q 184.314 129.469 183.671 129.469 Z M 192.203 128.539 Q 193.536 128.539 194.22 129.192 Q 194.903 129.845 194.903 131.287 L 194.903 136.168 L 193.782 136.168 L 193.782 131.362 Q 193.782 130.426 193.355 129.961 Q 192.928 129.496 192.046 129.496 Q 190.802 129.496 190.296 130.2 Q 189.79 130.904 189.79 132.244 L 189.79 136.168 L 188.655 136.168 L 188.655 128.676 L 189.571 128.676 L 189.742 129.756 L 189.804 129.756 Q 190.043 129.359 190.412 129.089 Q 190.781 128.819 191.239 128.679 Q 191.697 128.539 192.203 128.539 Z M 200.238 136.305 Q 199.226 136.305 198.453 135.888 Q 197.681 135.471 197.25 134.616 Q 196.82 133.762 196.82 132.463 Q 196.82 131.103 197.274 130.238 Q 197.729 129.373 198.529 128.956 Q 199.328 128.539 200.347 128.539 Q 200.907 128.539 201.43 128.652 Q 201.953 128.765 202.288 128.936 L 201.947 129.886 Q 201.605 129.749 201.157 129.64 Q 200.709 129.53 200.32 129.53 Q 199.54 129.53 199.024 129.865 Q 198.508 130.2 198.252 130.85 Q 197.995 131.499 197.995 132.449 Q 197.995 133.358 198.245 134.001 Q 198.494 134.644 198.99 134.982 Q 199.486 135.32 200.231 135.32 Q 200.825 135.32 201.304 135.194 Q 201.782 135.067 202.172 134.897 L 202.172 135.908 Q 201.796 136.1 201.335 136.202 Q 200.873 136.305 200.238 136.305 Z M 210.401 132.408 Q 210.401 133.331 210.161 134.056 Q 209.922 134.78 209.471 135.279 Q 209.02 135.778 208.381 136.042 Q 207.741 136.305 206.935 136.305 Q 206.183 136.305 205.557 136.042 Q 204.932 135.778 204.477 135.279 Q 204.023 134.78 203.773 134.056 Q 203.524 133.331 203.524 132.408 Q 203.524 131.178 203.941 130.313 Q 204.358 129.448 205.134 128.994 Q 205.909 128.539 206.983 128.539 Q 208.008 128.539 208.777 128.997 Q 209.546 129.455 209.973 130.32 Q 210.401 131.185 210.401 132.408 Z M 204.699 132.408 Q 204.699 133.311 204.939 133.974 Q 205.178 134.637 205.677 134.999 Q 206.176 135.361 206.962 135.361 Q 207.741 135.361 208.244 134.999 Q 208.746 134.637 208.986 133.974 Q 209.225 133.311 209.225 132.408 Q 209.225 131.513 208.986 130.86 Q 208.746 130.207 208.247 129.852 Q 207.748 129.496 206.955 129.496 Q 205.786 129.496 205.243 130.269 Q 204.699 131.041 204.699 132.408 Z M 215.02 136.305 Q 213.598 136.305 212.768 135.334 Q 211.937 134.363 211.937 132.449 Q 211.937 130.515 212.785 129.527 Q 213.633 128.539 215.041 128.539 Q 215.636 128.539 216.08 128.696 Q 216.524 128.854 216.846 129.117 Q 217.167 129.38 217.386 129.715 L 217.468 129.715 Q 217.44 129.503 217.413 129.134 Q 217.386 128.765 217.386 128.532 L 217.386 125.531 L 218.52 125.531 L 218.52 136.168 L 217.604 136.168 L 217.433 135.102 L 217.386 135.102 Q 217.174 135.437 216.849 135.71 Q 216.524 135.983 216.076 136.144 Q 215.629 136.305 215.02 136.305 Z M 215.198 135.361 Q 216.401 135.361 216.9 134.678 Q 217.399 133.994 217.399 132.647 L 217.399 132.442 Q 217.399 131.014 216.924 130.248 Q 216.449 129.482 215.198 129.482 Q 214.152 129.482 213.633 130.286 Q 213.113 131.089 213.113 132.477 Q 213.113 133.857 213.629 134.609 Q 214.145 135.361 215.198 135.361 Z M 223.809 128.539 Q 224.766 128.539 225.45 128.963 Q 226.133 129.387 226.496 130.149 Q 226.858 130.911 226.858 131.93 L 226.858 132.634 L 221.683 132.634 Q 221.704 133.953 222.339 134.644 Q 222.975 135.334 224.13 135.334 Q 224.841 135.334 225.388 135.204 Q 225.935 135.074 226.523 134.821 L 226.523 135.819 Q 225.956 136.072 225.398 136.189 Q 224.841 136.305 224.083 136.305 Q 223.003 136.305 222.199 135.864 Q 221.396 135.423 220.952 134.568 Q 220.507 133.714 220.507 132.477 Q 220.507 131.267 220.914 130.381 Q 221.321 129.496 222.063 129.018 Q 222.804 128.539 223.809 128.539 Z M 223.795 129.469 Q 222.886 129.469 222.346 130.064 Q 221.806 130.658 221.704 131.725 L 225.669 131.725 Q 225.662 131.055 225.46 130.545 Q 225.258 130.036 224.848 129.752 Q 224.438 129.469 223.795 129.469 Z" transform="matrix(0.956305, -0.292371, 0.292371, 0.956305, -77.992035, -16.278021)" style="fill: rgb(51, 51, 51); white-space: pre;"></path>
  <path d="M 183.466 136.305 Q 182.044 136.305 181.214 135.334 Q 180.383 134.363 180.383 132.449 Q 180.383 130.515 181.231 129.527 Q 182.079 128.539 183.487 128.539 Q 184.082 128.539 184.526 128.696 Q 184.97 128.854 185.292 129.117 Q 185.613 129.38 185.832 129.715 L 185.914 129.715 Q 185.886 129.503 185.859 129.134 Q 185.832 128.765 185.832 128.532 L 185.832 125.531 L 186.966 125.531 L 186.966 136.168 L 186.05 136.168 L 185.879 135.102 L 185.832 135.102 Q 185.62 135.437 185.295 135.71 Q 184.97 135.983 184.522 136.144 Q 184.075 136.305 183.466 136.305 Z M 183.644 135.361 Q 184.847 135.361 185.346 134.678 Q 185.845 133.994 185.845 132.647 L 185.845 132.442 Q 185.845 131.014 185.37 130.248 Q 184.895 129.482 183.644 129.482 Q 182.598 129.482 182.079 130.286 Q 181.559 131.089 181.559 132.477 Q 181.559 133.857 182.075 134.609 Q 182.591 135.361 183.644 135.361 Z M 192.244 128.539 Q 193.201 128.539 193.885 128.963 Q 194.568 129.387 194.93 130.149 Q 195.293 130.911 195.293 131.93 L 195.293 132.634 L 190.118 132.634 Q 190.139 133.953 190.774 134.644 Q 191.41 135.334 192.565 135.334 Q 193.276 135.334 193.823 135.204 Q 194.37 135.074 194.958 134.821 L 194.958 135.819 Q 194.39 136.072 193.833 136.189 Q 193.276 136.305 192.517 136.305 Q 191.437 136.305 190.634 135.864 Q 189.831 135.423 189.387 134.568 Q 188.942 133.714 188.942 132.477 Q 188.942 131.267 189.349 130.381 Q 189.756 129.496 190.497 129.018 Q 191.239 128.539 192.244 128.539 Z M 192.23 129.469 Q 191.321 129.469 190.781 130.064 Q 190.241 130.658 190.139 131.725 L 194.103 131.725 Q 194.097 131.055 193.895 130.545 Q 193.693 130.036 193.283 129.752 Q 192.873 129.469 192.23 129.469 Z M 200.215 136.305 Q 199.203 136.305 198.431 135.888 Q 197.659 135.471 197.228 134.616 Q 196.797 133.762 196.797 132.463 Q 196.797 131.103 197.252 130.238 Q 197.706 129.373 198.506 128.956 Q 199.306 128.539 200.325 128.539 Q 200.885 128.539 201.408 128.652 Q 201.931 128.765 202.266 128.936 L 201.924 129.886 Q 201.582 129.749 201.135 129.64 Q 200.687 129.53 200.297 129.53 Q 199.518 129.53 199.002 129.865 Q 198.486 130.2 198.229 130.85 Q 197.973 131.499 197.973 132.449 Q 197.973 133.358 198.222 134.001 Q 198.472 134.644 198.968 134.982 Q 199.463 135.32 200.208 135.32 Q 200.803 135.32 201.282 135.194 Q 201.76 135.067 202.15 134.897 L 202.15 135.908 Q 201.774 136.1 201.312 136.202 Q 200.851 136.305 200.215 136.305 Z M 210.378 132.408 Q 210.378 133.331 210.139 134.056 Q 209.9 134.78 209.449 135.279 Q 208.997 135.778 208.358 136.042 Q 207.719 136.305 206.912 136.305 Q 206.16 136.305 205.535 136.042 Q 204.909 135.778 204.455 135.279 Q 204 134.78 203.751 134.056 Q 203.501 133.331 203.501 132.408 Q 203.501 131.178 203.918 130.313 Q 204.335 129.448 205.111 128.994 Q 205.887 128.539 206.96 128.539 Q 207.986 128.539 208.755 128.997 Q 209.524 129.455 209.951 130.32 Q 210.378 131.185 210.378 132.408 Z M 204.677 132.408 Q 204.677 133.311 204.916 133.974 Q 205.156 134.637 205.655 134.999 Q 206.154 135.361 206.94 135.361 Q 207.719 135.361 208.221 134.999 Q 208.724 134.637 208.963 133.974 Q 209.202 133.311 209.202 132.408 Q 209.202 131.513 208.963 130.86 Q 208.724 130.207 208.225 129.852 Q 207.726 129.496 206.933 129.496 Q 205.764 129.496 205.221 130.269 Q 204.677 131.041 204.677 132.408 Z M 214.998 136.305 Q 213.576 136.305 212.745 135.334 Q 211.915 134.363 211.915 132.449 Q 211.915 130.515 212.763 129.527 Q 213.61 128.539 215.018 128.539 Q 215.613 128.539 216.058 128.696 Q 216.502 128.854 216.823 129.117 Q 217.144 129.38 217.363 129.715 L 217.445 129.715 Q 217.418 129.503 217.391 129.134 Q 217.363 128.765 217.363 128.532 L 217.363 125.531 L 218.498 125.531 L 218.498 136.168 L 217.582 136.168 L 217.411 135.102 L 217.363 135.102 Q 217.151 135.437 216.827 135.71 Q 216.502 135.983 216.054 136.144 Q 215.606 136.305 214.998 136.305 Z M 215.176 135.361 Q 216.379 135.361 216.878 134.678 Q 217.377 133.994 217.377 132.647 L 217.377 132.442 Q 217.377 131.014 216.902 130.248 Q 216.427 129.482 215.176 129.482 Q 214.13 129.482 213.61 130.286 Q 213.091 131.089 213.091 132.477 Q 213.091 133.857 213.607 134.609 Q 214.123 135.361 215.176 135.361 Z M 223.787 128.539 Q 224.744 128.539 225.427 128.963 Q 226.111 129.387 226.473 130.149 Q 226.836 130.911 226.836 131.93 L 226.836 132.634 L 221.661 132.634 Q 221.681 133.953 222.317 134.644 Q 222.953 135.334 224.108 135.334 Q 224.819 135.334 225.366 135.204 Q 225.913 135.074 226.501 134.821 L 226.501 135.819 Q 225.933 136.072 225.376 136.189 Q 224.819 136.305 224.06 136.305 Q 222.98 136.305 222.177 135.864 Q 221.374 135.423 220.929 134.568 Q 220.485 133.714 220.485 132.477 Q 220.485 131.267 220.892 130.381 Q 221.298 129.496 222.04 129.018 Q 222.782 128.539 223.787 128.539 Z M 223.773 129.469 Q 222.864 129.469 222.324 130.064 Q 221.784 130.658 221.681 131.725 L 225.646 131.725 Q 225.639 131.055 225.438 130.545 Q 225.236 130.036 224.826 129.752 Q 224.416 129.469 223.773 129.469 Z" transform="matrix(0.945519, 0.325568, -0.325568, 0.945519, 266.865509, -136.180557)" style="fill: rgb(51, 51, 51); white-space: pre;"></path>
  <path d="M 183.685 128.539 Q 184.642 128.539 185.326 128.963 Q 186.009 129.387 186.372 130.149 Q 186.734 130.911 186.734 131.93 L 186.734 132.634 L 181.559 132.634 Q 181.58 133.953 182.215 134.644 Q 182.851 135.334 184.006 135.334 Q 184.717 135.334 185.264 135.204 Q 185.811 135.074 186.399 134.821 L 186.399 135.819 Q 185.832 136.072 185.274 136.189 Q 184.717 136.305 183.958 136.305 Q 182.878 136.305 182.075 135.864 Q 181.272 135.423 180.828 134.568 Q 180.383 133.714 180.383 132.477 Q 180.383 131.267 180.79 130.381 Q 181.197 129.496 181.938 129.018 Q 182.68 128.539 183.685 128.539 Z M 183.671 129.469 Q 182.762 129.469 182.222 130.064 Q 181.682 130.658 181.58 131.725 L 185.544 131.725 Q 185.538 131.055 185.336 130.545 Q 185.134 130.036 184.724 129.752 Q 184.314 129.469 183.671 129.469 Z M 192.203 128.539 Q 193.536 128.539 194.22 129.192 Q 194.903 129.845 194.903 131.287 L 194.903 136.168 L 193.782 136.168 L 193.782 131.362 Q 193.782 130.426 193.355 129.961 Q 192.928 129.496 192.046 129.496 Q 190.802 129.496 190.296 130.2 Q 189.79 130.904 189.79 132.244 L 189.79 136.168 L 188.655 136.168 L 188.655 128.676 L 189.571 128.676 L 189.742 129.756 L 189.804 129.756 Q 190.043 129.359 190.412 129.089 Q 190.781 128.819 191.239 128.679 Q 191.697 128.539 192.203 128.539 Z M 200.238 136.305 Q 199.226 136.305 198.453 135.888 Q 197.681 135.471 197.25 134.616 Q 196.82 133.762 196.82 132.463 Q 196.82 131.103 197.274 130.238 Q 197.729 129.373 198.529 128.956 Q 199.328 128.539 200.347 128.539 Q 200.907 128.539 201.43 128.652 Q 201.953 128.765 202.288 128.936 L 201.947 129.886 Q 201.605 129.749 201.157 129.64 Q 200.709 129.53 200.32 129.53 Q 199.54 129.53 199.024 129.865 Q 198.508 130.2 198.252 130.85 Q 197.995 131.499 197.995 132.449 Q 197.995 133.358 198.245 134.001 Q 198.494 134.644 198.99 134.982 Q 199.486 135.32 200.231 135.32 Q 200.825 135.32 201.304 135.194 Q 201.782 135.067 202.172 134.897 L 202.172 135.908 Q 201.796 136.1 201.335 136.202 Q 200.873 136.305 200.238 136.305 Z M 210.401 132.408 Q 210.401 133.331 210.161 134.056 Q 209.922 134.78 209.471 135.279 Q 209.02 135.778 208.381 136.042 Q 207.741 136.305 206.935 136.305 Q 206.183 136.305 205.557 136.042 Q 204.932 135.778 204.477 135.279 Q 204.023 134.78 203.773 134.056 Q 203.524 133.331 203.524 132.408 Q 203.524 131.178 203.941 130.313 Q 204.358 129.448 205.134 128.994 Q 205.909 128.539 206.983 128.539 Q 208.008 128.539 208.777 128.997 Q 209.546 129.455 209.973 130.32 Q 210.401 131.185 210.401 132.408 Z M 204.699 132.408 Q 204.699 133.311 204.939 133.974 Q 205.178 134.637 205.677 134.999 Q 206.176 135.361 206.962 135.361 Q 207.741 135.361 208.244 134.999 Q 208.746 134.637 208.986 133.974 Q 209.225 133.311 209.225 132.408 Q 209.225 131.513 208.986 130.86 Q 208.746 130.207 208.247 129.852 Q 207.748 129.496 206.955 129.496 Q 205.786 129.496 205.243 130.269 Q 204.699 131.041 204.699 132.408 Z M 215.02 136.305 Q 213.598 136.305 212.768 135.334 Q 211.937 134.363 211.937 132.449 Q 211.937 130.515 212.785 129.527 Q 213.633 128.539 215.041 128.539 Q 215.636 128.539 216.08 128.696 Q 216.524 128.854 216.846 129.117 Q 217.167 129.38 217.386 129.715 L 217.468 129.715 Q 217.44 129.503 217.413 129.134 Q 217.386 128.765 217.386 128.532 L 217.386 125.531 L 218.52 125.531 L 218.52 136.168 L 217.604 136.168 L 217.433 135.102 L 217.386 135.102 Q 217.174 135.437 216.849 135.71 Q 216.524 135.983 216.076 136.144 Q 215.629 136.305 215.02 136.305 Z M 215.198 135.361 Q 216.401 135.361 216.9 134.678 Q 217.399 133.994 217.399 132.647 L 217.399 132.442 Q 217.399 131.014 216.924 130.248 Q 216.449 129.482 215.198 129.482 Q 214.152 129.482 213.633 130.286 Q 213.113 131.089 213.113 132.477 Q 213.113 133.857 213.629 134.609 Q 214.145 135.361 215.198 135.361 Z M 223.809 128.539 Q 224.766 128.539 225.45 128.963 Q 226.133 129.387 226.496 130.149 Q 226.858 130.911 226.858 131.93 L 226.858 132.634 L 221.683 132.634 Q 221.704 133.953 222.339 134.644 Q 222.975 135.334 224.13 135.334 Q 224.841 135.334 225.388 135.204 Q 225.935 135.074 226.523 134.821 L 226.523 135.819 Q 225.956 136.072 225.398 136.189 Q 224.841 136.305 224.083 136.305 Q 223.003 136.305 222.199 135.864 Q 221.396 135.423 220.952 134.568 Q 220.507 133.714 220.507 132.477 Q 220.507 131.267 220.914 130.381 Q 221.321 129.496 222.063 129.018 Q 222.804 128.539 223.809 128.539 Z M 223.795 129.469 Q 222.886 129.469 222.346 130.064 Q 221.806 130.658 221.704 131.725 L 225.669 131.725 Q 225.662 131.055 225.46 130.545 Q 225.258 130.036 224.848 129.752 Q 224.438 129.469 223.795 129.469 Z" transform="matrix(0.956305, -0.292371, 0.292371, 0.956305, 190.298798, 174.645233)" style="fill: rgb(51, 51, 51); white-space: pre;"></path>
  <path d="M 183.466 136.305 Q 182.044 136.305 181.214 135.334 Q 180.383 134.363 180.383 132.449 Q 180.383 130.515 181.231 129.527 Q 182.079 128.539 183.487 128.539 Q 184.082 128.539 184.526 128.696 Q 184.97 128.854 185.292 129.117 Q 185.613 129.38 185.832 129.715 L 185.914 129.715 Q 185.886 129.503 185.859 129.134 Q 185.832 128.765 185.832 128.532 L 185.832 125.531 L 186.966 125.531 L 186.966 136.168 L 186.05 136.168 L 185.879 135.102 L 185.832 135.102 Q 185.62 135.437 185.295 135.71 Q 184.97 135.983 184.522 136.144 Q 184.075 136.305 183.466 136.305 Z M 183.644 135.361 Q 184.847 135.361 185.346 134.678 Q 185.845 133.994 185.845 132.647 L 185.845 132.442 Q 185.845 131.014 185.37 130.248 Q 184.895 129.482 183.644 129.482 Q 182.598 129.482 182.079 130.286 Q 181.559 131.089 181.559 132.477 Q 181.559 133.857 182.075 134.609 Q 182.591 135.361 183.644 135.361 Z M 192.244 128.539 Q 193.201 128.539 193.885 128.963 Q 194.568 129.387 194.93 130.149 Q 195.293 130.911 195.293 131.93 L 195.293 132.634 L 190.118 132.634 Q 190.139 133.953 190.774 134.644 Q 191.41 135.334 192.565 135.334 Q 193.276 135.334 193.823 135.204 Q 194.37 135.074 194.958 134.821 L 194.958 135.819 Q 194.39 136.072 193.833 136.189 Q 193.276 136.305 192.517 136.305 Q 191.437 136.305 190.634 135.864 Q 189.831 135.423 189.387 134.568 Q 188.942 133.714 188.942 132.477 Q 188.942 131.267 189.349 130.381 Q 189.756 129.496 190.497 129.018 Q 191.239 128.539 192.244 128.539 Z M 192.23 129.469 Q 191.321 129.469 190.781 130.064 Q 190.241 130.658 190.139 131.725 L 194.103 131.725 Q 194.097 131.055 193.895 130.545 Q 193.693 130.036 193.283 129.752 Q 192.873 129.469 192.23 129.469 Z M 200.215 136.305 Q 199.203 136.305 198.431 135.888 Q 197.659 135.471 197.228 134.616 Q 196.797 133.762 196.797 132.463 Q 196.797 131.103 197.252 130.238 Q 197.706 129.373 198.506 128.956 Q 199.306 128.539 200.325 128.539 Q 200.885 128.539 201.408 128.652 Q 201.931 128.765 202.266 128.936 L 201.924 129.886 Q 201.582 129.749 201.135 129.64 Q 200.687 129.53 200.297 129.53 Q 199.518 129.53 199.002 129.865 Q 198.486 130.2 198.229 130.85 Q 197.973 131.499 197.973 132.449 Q 197.973 133.358 198.222 134.001 Q 198.472 134.644 198.968 134.982 Q 199.463 135.32 200.208 135.32 Q 200.803 135.32 201.282 135.194 Q 201.76 135.067 202.15 134.897 L 202.15 135.908 Q 201.774 136.1 201.312 136.202 Q 200.851 136.305 200.215 136.305 Z M 210.378 132.408 Q 210.378 133.331 210.139 134.056 Q 209.9 134.78 209.449 135.279 Q 208.997 135.778 208.358 136.042 Q 207.719 136.305 206.912 136.305 Q 206.16 136.305 205.535 136.042 Q 204.909 135.778 204.455 135.279 Q 204 134.78 203.751 134.056 Q 203.501 133.331 203.501 132.408 Q 203.501 131.178 203.918 130.313 Q 204.335 129.448 205.111 128.994 Q 205.887 128.539 206.96 128.539 Q 207.986 128.539 208.755 128.997 Q 209.524 129.455 209.951 130.32 Q 210.378 131.185 210.378 132.408 Z M 204.677 132.408 Q 204.677 133.311 204.916 133.974 Q 205.156 134.637 205.655 134.999 Q 206.154 135.361 206.94 135.361 Q 207.719 135.361 208.221 134.999 Q 208.724 134.637 208.963 133.974 Q 209.202 133.311 209.202 132.408 Q 209.202 131.513 208.963 130.86 Q 208.724 130.207 208.225 129.852 Q 207.726 129.496 206.933 129.496 Q 205.764 129.496 205.221 130.269 Q 204.677 131.041 204.677 132.408 Z M 214.998 136.305 Q 213.576 136.305 212.745 135.334 Q 211.915 134.363 211.915 132.449 Q 211.915 130.515 212.763 129.527 Q 213.61 128.539 215.018 128.539 Q 215.613 128.539 216.058 128.696 Q 216.502 128.854 216.823 129.117 Q 217.144 129.38 217.363 129.715 L 217.445 129.715 Q 217.418 129.503 217.391 129.134 Q 217.363 128.765 217.363 128.532 L 217.363 125.531 L 218.498 125.531 L 218.498 136.168 L 217.582 136.168 L 217.411 135.102 L 217.363 135.102 Q 217.151 135.437 216.827 135.71 Q 216.502 135.983 216.054 136.144 Q 215.606 136.305 214.998 136.305 Z M 215.176 135.361 Q 216.379 135.361 216.878 134.678 Q 217.377 133.994 217.377 132.647 L 217.377 132.442 Q 217.377 131.014 216.902 130.248 Q 216.427 129.482 215.176 129.482 Q 214.13 129.482 213.61 130.286 Q 213.091 131.089 213.091 132.477 Q 213.091 133.857 213.607 134.609 Q 214.123 135.361 215.176 135.361 Z M 223.787 128.539 Q 224.744 128.539 225.427 128.963 Q 226.111 129.387 226.473 130.149 Q 226.836 130.911 226.836 131.93 L 226.836 132.634 L 221.661 132.634 Q 221.681 133.953 222.317 134.644 Q 222.953 135.334 224.108 135.334 Q 224.819 135.334 225.366 135.204 Q 225.913 135.074 226.501 134.821 L 226.501 135.819 Q 225.933 136.072 225.376 136.189 Q 224.819 136.305 224.06 136.305 Q 222.98 136.305 222.177 135.864 Q 221.374 135.423 220.929 134.568 Q 220.485 133.714 220.485 132.477 Q 220.485 131.267 220.892 130.381 Q 221.298 129.496 222.04 129.018 Q 222.782 128.539 223.787 128.539 Z M 223.773 129.469 Q 222.864 129.469 222.324 130.064 Q 221.784 130.658 221.681 131.725 L 225.646 131.725 Q 225.639 131.055 225.438 130.545 Q 225.236 130.036 224.826 129.752 Q 224.416 129.469 223.773 129.469 Z" transform="matrix(0.945519, 0.325568, -0.325568, 0.945519, -3.921027, 49.127296)" style="fill: rgb(51, 51, 51); white-space: pre;"></path>
  <path style="stroke: rgb(0, 0, 0); fill: none;" d="M 282.373 98.478 L 262.373 128.478 L 282.373 158.478 L 262.373 188.478"></path>
  <path style="stroke: rgb(0, 0, 0); fill: none;" d="M 288.373 98.478 L 268.373 128.478 L 288.373 158.478 L 268.373 188.478"></path>
  <path style="stroke: rgb(0, 0, 0); fill: none;" d="M 294.373 98.478 L 274.373 128.478 L 294.373 158.478 L 274.373 188.478"></path>
  <path style="stroke: rgb(0, 0, 0); fill: none;" d="M 300.373 98.478 L 280.373 128.478 L 300.373 158.478 L 280.373 188.478"></path>
  <path d="M 240.611 161.337 L 239.271 161.337 L 233.823 152.942 L 233.768 152.942 Q 233.788 153.277 233.816 153.705 Q 233.843 154.132 233.86 154.614 Q 233.877 155.096 233.877 155.595 L 233.877 161.337 L 232.797 161.337 L 232.797 151.343 L 234.13 151.343 L 239.558 159.71 L 239.606 159.71 Q 239.592 159.471 239.572 159.03 Q 239.551 158.589 239.534 158.08 Q 239.517 157.57 239.517 157.133 L 239.517 151.343 L 240.611 151.343 Z M 249.623 157.577 Q 249.623 158.5 249.384 159.225 Q 249.144 159.949 248.693 160.448 Q 248.242 160.947 247.603 161.211 Q 246.964 161.474 246.157 161.474 Q 245.405 161.474 244.78 161.211 Q 244.154 160.947 243.7 160.448 Q 243.245 159.949 242.995 159.225 Q 242.746 158.5 242.746 157.577 Q 242.746 156.347 243.163 155.482 Q 243.58 154.617 244.356 154.163 Q 245.132 153.708 246.205 153.708 Q 247.23 153.708 247.999 154.166 Q 248.768 154.624 249.196 155.489 Q 249.623 156.354 249.623 157.577 Z M 243.922 157.577 Q 243.922 158.48 244.161 159.143 Q 244.4 159.806 244.899 160.168 Q 245.398 160.53 246.184 160.53 Q 246.964 160.53 247.466 160.168 Q 247.969 159.806 248.208 159.143 Q 248.447 158.48 248.447 157.577 Q 248.447 156.682 248.208 156.029 Q 247.969 155.376 247.47 155.021 Q 246.971 154.665 246.178 154.665 Q 245.009 154.665 244.465 155.438 Q 243.922 156.21 243.922 157.577 Z M 252.711 153.845 L 252.711 161.337 L 251.577 161.337 L 251.577 153.845 Z M 252.158 151.042 Q 252.438 151.042 252.64 151.223 Q 252.841 151.404 252.841 151.787 Q 252.841 152.163 252.64 152.348 Q 252.438 152.532 252.158 152.532 Q 251.864 152.532 251.669 152.348 Q 251.474 152.163 251.474 151.787 Q 251.474 151.404 251.669 151.223 Q 251.864 151.042 252.158 151.042 Z M 259.954 159.286 Q 259.954 160.004 259.595 160.493 Q 259.236 160.982 258.57 161.228 Q 257.903 161.474 256.98 161.474 Q 256.194 161.474 255.62 161.351 Q 255.046 161.228 254.615 161.002 L 254.615 159.956 Q 255.073 160.182 255.709 160.366 Q 256.345 160.551 257.008 160.551 Q 257.978 160.551 258.416 160.236 Q 258.853 159.922 258.853 159.382 Q 258.853 159.074 258.679 158.838 Q 258.505 158.603 258.095 158.38 Q 257.685 158.158 256.96 157.892 Q 256.242 157.618 255.719 157.348 Q 255.196 157.078 254.913 156.689 Q 254.629 156.299 254.629 155.677 Q 254.629 154.727 255.398 154.217 Q 256.167 153.708 257.418 153.708 Q 258.095 153.708 258.686 153.841 Q 259.277 153.975 259.79 154.2 L 259.407 155.109 Q 258.942 154.911 258.416 154.775 Q 257.89 154.638 257.343 154.638 Q 256.557 154.638 256.136 154.898 Q 255.716 155.157 255.716 155.608 Q 255.716 155.957 255.911 156.183 Q 256.105 156.408 256.536 156.607 Q 256.967 156.805 257.671 157.071 Q 258.375 157.331 258.888 157.608 Q 259.4 157.885 259.677 158.278 Q 259.954 158.671 259.954 159.286 Z M 264.663 153.708 Q 265.62 153.708 266.303 154.132 Q 266.987 154.556 267.349 155.318 Q 267.712 156.08 267.712 157.099 L 267.712 157.803 L 262.537 157.803 Q 262.557 159.122 263.193 159.813 Q 263.829 160.503 264.984 160.503 Q 265.695 160.503 266.242 160.373 Q 266.789 160.243 267.377 159.99 L 267.377 160.988 Q 266.809 161.241 266.252 161.358 Q 265.695 161.474 264.936 161.474 Q 263.856 161.474 263.053 161.033 Q 262.25 160.592 261.805 159.737 Q 261.361 158.883 261.361 157.646 Q 261.361 156.436 261.768 155.55 Q 262.174 154.665 262.916 154.187 Q 263.658 153.708 264.663 153.708 Z M 264.649 154.638 Q 263.74 154.638 263.2 155.233 Q 262.66 155.827 262.557 156.894 L 266.522 156.894 Q 266.515 156.224 266.314 155.714 Q 266.112 155.205 265.702 154.921 Q 265.292 154.638 264.649 154.638 Z" style="fill: rgb(51, 51, 51); white-space: pre;"></path>
</svg>